<?xml version="1.0" encoding="utf-8"?>
<!-- Generator: Adobe Illustrator 26.0.2, SVG Export Plug-In . SVG Version: 6.00 Build 0)  -->
<svg version="1.1" xmlns="http://www.w3.org/2000/svg" xmlns:xlink="http://www.w3.org/1999/xlink" x="0px" y="0px"
	 viewBox="0 0 1070.5 376.4" style="enable-background:new 0 0 1070.5 376.4;" xml:space="preserve">
<style type="text/css">
	.st0{fill:#EAB18A;}
	.st1{fill:none;stroke:#6B5491;stroke-width:10.5913;stroke-miterlimit:10;}
	.st2{fill:none;stroke:#B67190;stroke-width:11.0162;stroke-miterlimit:10;}
	.st3{fill:#6C4355;}
	.st4{fill:#B67190;}
	.st5{fill:#A25C30;}
	.st6{fill:none;stroke:#FFFFFF;stroke-width:4.5772;stroke-miterlimit:10;}
	.st7{fill:#656EA3;}
	.st8{fill:#FFFFFF;}
	.st9{fill:#6B5491;}
	.st10{fill:#B7F38F;}
	.st11{fill:none;stroke:#B67190;stroke-width:5.3649;stroke-miterlimit:10;}
	
		.st12{fill:none;stroke:#FFFFFF;stroke-width:4.5772;stroke-linecap:round;stroke-linejoin:round;stroke-miterlimit:10;stroke-dasharray:12.2059,12.2059;}
	.st13{fill:#BD8F6F;}
</style>
<g id="BACKGROUND">
</g>
<g id="OBJECTS">
	<g>
		<path class="st0" d="M451.1,376H0.2V64.4c13.1-13,28.4-23.8,45.3-31.5c45.5-20.7,106-15.6,137.1,23.5
			c17.9,22.5,23.6,52.4,24.6,81.1c0.4,9.5,0.3,19.1,0.1,28.6c-0.2,11.2-0.5,22.4-0.3,33.6c0.1,8,0.5,16,1.4,23.9
			c0.1,0.6,0.1,1.2,0.2,1.8c0.6,4.6,1.5,9.2,3.6,13.3c0.3,0.6,0.7,1.2,1.1,1.8c0.8,1.2,1.7,2.3,2.7,3.3c0.9,0.8,1.8,1.6,2.8,2.2
			c10.1,6.9,25.9,5.1,38.9,2.7c52.7-9.4,112.7-7.2,152.2,28.9C437.1,302.5,449.1,338.6,451.1,376z"/>
	</g>
	<circle class="st1" cx="299" cy="199.9" r="14.1"/>
	
		<ellipse transform="matrix(0.9732 -0.2298 0.2298 0.9732 -32.5311 248.3732)" class="st2" cx="1050.3" cy="263.9" rx="14.7" ry="14.7"/>
	<polygon class="st3" points="844.2,209.9 841.2,251.2 831.6,221.7 759.3,191.3 	"/>
	<path class="st4" d="M864.2,199.6c0,0-20.2,5.9-20,10.8l-84-19.2C760.2,191.2,808.9,182.1,864.2,199.6z"/>
	<path class="st5" d="M841.5,252.1c0.1,1.4-27.8-16.3-27.8-16.3l18.8-14.2C832.5,221.7,840.7,239.9,841.5,252.1z"/>
	<path class="st0" d="M832.5,221.7c0,0-24.4,16.5-22.6,33.4l-51.1-64C758.8,191,826,217.1,832.5,221.7z"/>
	<g>
		<path class="st0" d="M865.2,202.7c-5.3,0.3-10.4,2-14.8,4.9c-1,0.7-1.5,2-0.8,3.1c0.6,1,2.1,1.5,3.1,0.8c1-0.7,2-1.2,3-1.8
			c0.3-0.1,0.6-0.3,0.8-0.4c0.1-0.1,0.3-0.1,0.4-0.2c-0.2,0.1-0.2,0.1,0.1,0c0.5-0.2,1-0.4,1.5-0.6c1.1-0.4,2.2-0.7,3.4-0.9
			c1.2-0.2,1.7-0.3,3.1-0.4c1.2-0.1,2.3-1,2.3-2.3C867.4,203.9,866.5,202.7,865.2,202.7L865.2,202.7z"/>
	</g>
	<g>
		<path class="st4" d="M795.8,247.8c-9.4-13.2-19.5-25.9-30.4-37.9c-2-2.2-5.2,1.1-3.2,3.2c10.6,11.7,20.6,24.1,29.7,37
			c0.7,1,2,1.5,3.1,0.8C796,250.4,796.5,248.8,795.8,247.8L795.8,247.8z"/>
	</g>
	<g>
		<path class="st6" d="M406,312c-3.5-2.2-8.1-1.2-10.3,2.3c-2.2,3.5-1.2,8.1,2.3,10.3c3.5,2.2,8.1,1.2,10.3-2.3
			C410.5,318.8,409.5,314.2,406,312z"/>
		<circle class="st6" cx="381.3" cy="298" r="6.1"/>
	</g>
	<g>
		<path class="st0" d="M866.2,376c-0.1,0.2-0.2,0.3-0.3,0.4h-3.6c-0.1-0.1-0.3-0.3-0.4-0.4c-2-2.2-4-4.3-6-6.4
			c-18.1-18.6-38.6-34.8-61.2-47.8c-22.4-12.9-46.7-22.4-72-27.7c-27.2-5.6-55.6-5.8-82.9-1c-13.2,2.4-26.3,5.9-38.9,10.5
			c0,0,0,0,0,0c-8.7,3.2-17.2,7-25.5,11.3c-4.4,2.3-8.6,4.7-12.8,7.3c-19.2,11.8-36.4,26.8-50.3,44.6c-1.7,2.2-3.4,4.4-5,6.7
			c0,0,0,0,0,0c-0.6,0.8-1.2,1.7-1.8,2.5c-0.1,0.1-0.2,0.3-0.3,0.4h-5.5c0.1-0.1,0.2-0.3,0.3-0.4c1.7-2.6,3.4-5.1,5.2-7.5
			c16.8-22.8,38.7-41.4,63.4-55.1c24.7-13.7,52-22.4,79.9-26.2c27.9-3.7,56.3-2.3,83.7,4.4c25.6,6.3,50.2,17,72.6,30.9
			c22.6,14,43,31.3,61,50.9C866.5,374.3,866.5,375.2,866.2,376z"/>
	</g>
	<g>
		<path class="st0" d="M217.9,127.6c-1,0.3-2.5-0.4-2.7-1.5c-0.3-2.1-0.7-4.2-1.1-6.3c-3.3-17-9.8-33.2-19-47.9
			c-9.2-14.7-21-27.8-34.7-38.4c-14.3-11.1-30.8-19.2-48.3-23.9c-18.4-5-37.8-6.3-56.8-4c-7.5,0.9-15,2.4-22.3,4.5
			C22,13,11.4,17.4,1.5,23.1c-0.5,0.3-1,0.4-1.5,0.3v-4.5c1.8-1.1,3.7-2.1,5.6-3C14.4,11.5,23.6,8,33,5.4c9.5-2.6,19.2-4.2,29-5
			c19.5-1.5,39.5,0.8,58.1,6.9c17.6,5.7,33.9,14.9,48,26.7c13.6,11.4,25.2,25.4,34,40.8c8.8,15.5,14.9,32.5,17.4,50.1
			C219.6,126.1,219.2,127.2,217.9,127.6z"/>
	</g>
	<g>
		<g>
			<path class="st0" d="M381.7,238.9c12.6,2.1,24.6,6.7,35.4,13.4c10.7,6.6,20.2,15.2,27.6,25.3c4.3,5.8,7.9,12.1,10.8,18.7
				c0.5,1.1,2.2,1.4,3.1,0.8c1.2-0.7,1.3-2,0.8-3.1c-5.3-12-13-22.8-22.4-31.9c-9.6-9.2-20.8-16.5-33-21.5c-6.8-2.8-13.9-4.8-21.1-6
				c-1.2-0.2-2.5,0.3-2.8,1.6C379.8,237.2,380.4,238.7,381.7,238.9L381.7,238.9z"/>
		</g>
	</g>
	<g>
		<g>
			<path class="st7" d="M110.9,85.6c2,0,2-3.2,0-3.2C108.9,82.4,108.9,85.6,110.9,85.6L110.9,85.6z"/>
		</g>
	</g>
	<g>
		<path class="st0" d="M813.1,376.4H505.5c0.1-0.1,0.2-0.3,0.2-0.4c3.9-7,8.5-13.7,13.7-20c4.6-5.6,9.6-10.8,15-15.6
			c12-10.7,25.6-19.3,40-26.2c15.5-7.4,32.2-12.9,49-16.7c49.6-11.3,105.7-7.8,146,23.3c18.8,14.6,32.8,33.9,43.5,55.2
			C813,376.1,813.1,376.3,813.1,376.4z"/>
	</g>
	<g>
		<path class="st4" d="M1069.1,372.8c-1.8-3.7-3.8-7.3-6-10.9c-0.7-1.1-2.1-1.4-3.2-0.7c-1.1,0.7-1.4,2.1-0.7,3.2
			c2.1,3.4,4.1,6.9,5.8,10.5c0.3,0.5,0.7,1,1.3,1.1c0.2,0.1,0.5,0.1,0.8,0.1c0.3,0,0.5,0,0.8-0.1c0.1,0,0.1-0.1,0.2-0.1
			C1069.2,375.3,1069.7,374,1069.1,372.8z M1056.1,351.7c-2.5-3.3-5.2-6.5-8-9.5c-0.9-0.9-2.3-1-3.2-0.1s-1,2.3-0.1,3.2
			c2.7,2.9,5.3,6,7.7,9.2c0.5,0.6,1.1,0.9,1.8,0.9c0.5,0,1-0.1,1.4-0.5C1056.6,354.2,1056.8,352.7,1056.1,351.7z M1039.2,333.5
			c-1.1-1-2.3-2-3.5-3c-2-1.7-4.1-3.3-6.2-4.8c-1-0.8-2.5-0.5-3.2,0.5s-0.5,2.4,0.5,3.2c2,1.5,4.1,3.1,6,4.7
			c1.1,0.9,2.2,1.9,3.3,2.9c0.4,0.4,1,0.6,1.5,0.6c0.6,0,1.3-0.3,1.7-0.8C1040.2,335.8,1040.1,334.4,1039.2,333.5z M1019.2,318.8
			c-3.5-2.1-7.2-4.1-10.9-6c-1.1-0.6-2.5-0.1-3.1,1c-0.6,1.1-0.1,2.5,1,3.1c3.6,1.8,7.1,3.7,10.5,5.8c0.4,0.2,0.8,0.3,1.2,0.3
			c0.8,0,1.5-0.4,2-1.1C1020.6,320.9,1020.3,319.5,1019.2,318.8z M997,307.9c-3.8-1.5-7.7-2.9-11.7-4.1c-1.2-0.4-2.5,0.3-2.9,1.5
			c-0.4,1.2,0.3,2.5,1.5,2.9c3.8,1.2,7.7,2.5,11.3,4c0.3,0.1,0.6,0.2,0.8,0.2c0.9,0,1.8-0.6,2.1-1.5
			C998.8,309.7,998.2,308.3,997,307.9z M973.4,300.6c-4-0.9-8.1-1.7-12.2-2.2c-1.2-0.2-2.4,0.7-2.6,1.9s0.7,2.4,1.9,2.6
			c4,0.6,7.9,1.3,11.8,2.2c0.2,0,0.3,0.1,0.5,0.1c1,0,2-0.7,2.2-1.8C975.4,302.1,974.6,300.9,973.4,300.6z M948.9,297.1
			c-1.6-0.1-3.2-0.2-4.7-0.3c-2.4-0.2-4.9-0.3-7.4-0.5c-1.2-0.1-2.4,0.8-2.5,2.1c-0.1,1.3,0.8,2.4,2.1,2.5c2.5,0.2,5,0.4,7.5,0.6
			c1.6,0.1,3.1,0.2,4.7,0.3c0.1,0,0.1,0,0.2,0c1.2,0,2.2-0.9,2.3-2.1C951.1,298.2,950.1,297.1,948.9,297.1z M925,294.5
			c-1.3-0.3-2.6-0.6-3.7-0.9c-1.3-0.4-2.6-0.8-3.9-1.3c0.8-0.5,1.7-1,2.5-1.6c1-0.7,1.3-2.2,0.5-3.2c-0.7-1-2.2-1.3-3.2-0.5
			c-1.8,1.3-3.7,2.3-5.7,3.1c-1.5,0.6-3,1-4.6,1.4c-1.2,0.3-2,1.5-1.8,2.7c0.3,1.2,1.5,2,2.7,1.8c1.3-0.3,2.6-0.6,3.9-1.1
			c0.1,0,0.1,0.1,0.2,0.1c2.5,1.2,5.2,2.3,8,3.1c1.3,0.4,2.7,0.7,4,1c0.2,0,0.3,0,0.5,0c1.1,0,2-0.7,2.2-1.8
			C927,296,926.2,294.8,925,294.5z M895.4,292c-3.7-0.4-7.5-1.2-11.4-2.5c-1.2-0.4-2.5,0.2-2.9,1.4c-0.4,1.2,0.2,2.5,1.4,2.9
			c4.2,1.4,8.4,2.3,12.4,2.7c0.1,0,0.2,0,0.2,0c1.2,0,2.2-0.9,2.3-2.1C897.6,293.2,896.7,292.1,895.4,292z M873.3,284.6
			c-3.4-1.9-6.7-4.2-9.7-6.7c-1-0.8-2.4-0.7-3.2,0.3c-0.8,1-0.7,2.4,0.3,3.2c3.2,2.7,6.7,5.1,10.4,7.1c0.3,0.2,0.7,0.3,1.1,0.3
			c0.8,0,1.6-0.4,2-1.2C874.8,286.7,874.4,285.3,873.3,284.6z M904.6,284.3c-2.5-2.5-4.4-5.4-5.5-8.4c-0.1-0.3-0.2-0.6-0.3-0.9
			c-0.4-1.2-1.7-1.9-2.9-1.5c-1.2,0.4-1.9,1.7-1.5,2.9c0.1,0.4,0.2,0.8,0.4,1.2c1.4,3.7,3.6,7,6.6,10c0.4,0.5,1,0.7,1.6,0.7
			c0.6,0,1.2-0.2,1.6-0.7C905.5,286.7,905.5,285.2,904.6,284.3z M931.7,268.2l0-0.2c-0.1-1.2-1.2-2.1-2.4-2
			c-1.2,0.1-2.2,1.2-2.1,2.5c0,0.3,0,0.6,0,0.9c0,3.2-0.9,6.4-2.6,9.5c-0.6,1.1-0.2,2.5,0.9,3.1c0.4,0.2,0.7,0.3,1.1,0.3
			c0.8,0,1.6-0.4,2-1.2c2.1-3.7,3.1-7.8,3.1-11.7C931.7,268.9,931.7,268.6,931.7,268.2z M855.2,269.7c-2.5-3-4.8-6.2-6.8-9.6
			c-0.6-1.1-2-1.5-3.1-0.8c-1.1,0.6-1.5,2-0.8,3.1c2.1,3.6,4.5,7.1,7.2,10.3c0.5,0.5,1.1,0.8,1.8,0.8c0.5,0,1-0.2,1.5-0.5
			C855.9,272.1,856,270.7,855.2,269.7z M904.8,252.2c-0.8-1-2.2-1.2-3.2-0.4c-3.5,2.6-6.1,6.6-7.3,11.3c-0.3,1.2,0.4,2.5,1.6,2.8
			c0.2,0,0.4,0.1,0.6,0.1c1,0,1.9-0.7,2.2-1.7c1-3.7,3-6.8,5.7-8.9C905.3,254.6,905.5,253.2,904.8,252.2z M926.5,255.6
			c-3.1-3.6-7.2-6.1-11.5-7c-1.2-0.2-2.4,0.6-2.7,1.8c-0.2,1.2,0.6,2.4,1.8,2.7c3.3,0.7,6.5,2.6,9,5.5c0.5,0.5,1.1,0.8,1.7,0.8
			c0.5,0,1.1-0.2,1.5-0.5C927.2,258,927.3,256.6,926.5,255.6z"/>
	</g>
	<g>
		<path class="st8" d="M659.8,344.5c-4.1-0.1-8.3,0.1-12.5,0.6c-1.3,0.1-2.2,1.3-2,2.5c0.1,1.2,1.1,2,2.3,2c0.1,0,0.2,0,0.3,0
			c3.9-0.4,7.9-0.6,11.9-0.5c1.2,0,2.3-1,2.3-2.2C662.1,345.5,661.1,344.5,659.8,344.5z M684.5,348.4c-2.7-0.8-5.5-1.5-8.3-2.1
			c-1.3-0.3-2.6-0.5-3.9-0.7c-1.2-0.2-2.4,0.7-2.6,1.9c-0.2,1.2,0.7,2.4,1.9,2.6c1.2,0.2,2.5,0.4,3.7,0.7c2.7,0.5,5.3,1.2,7.9,2
			c0.2,0.1,0.4,0.1,0.7,0.1c1,0,1.9-0.6,2.2-1.6C686.4,350,685.7,348.7,684.5,348.4z M637.8,348.8c-0.3-1.2-1.5-2-2.8-1.7
			c-4,1-8,2.2-11.9,3.7c-1.2,0.4-1.8,1.8-1.3,2.9c0.3,0.9,1.2,1.5,2.1,1.5c0.3,0,0.5,0,0.8-0.2c3.7-1.4,7.5-2.6,11.4-3.5
			C637.3,351.3,638.1,350.1,637.8,348.8z M707.2,358.6c-3.5-2.2-7.2-4.2-11-5.9c-1.2-0.5-2.5,0-3,1.1c-0.5,1.2,0,2.5,1.1,3
			c3.6,1.6,7.1,3.5,10.5,5.6c0.4,0.2,0.8,0.3,1.2,0.3c0.8,0,1.5-0.4,1.9-1.1C708.6,360.7,708.3,359.3,707.2,358.6z M614.9,357
			c-0.6-1.1-2-1.5-3.1-0.9c-3.5,1.9-6.8,4-10,6.3l-0.6,0.4c-1,0.8-1.2,2.2-0.5,3.2c0.4,0.6,1.1,0.9,1.8,0.9c0.5,0,1-0.1,1.4-0.4
			l0.5-0.4c3-2.2,6.2-4.2,9.5-6C615.1,359.5,615.5,358.1,614.9,357z M726.5,374.4c-0.7-0.7-1.4-1.4-2.1-2.1c-2.2-2.2-4.6-4.4-7-6.4
			c-1-0.8-2.4-0.6-3.2,0.3c-0.8,1-0.7,2.4,0.3,3.2c2.3,1.9,4.6,3.9,6.7,6.1c0.2,0.2,0.3,0.3,0.5,0.5c0.2,0.1,0.3,0.3,0.4,0.4h5
			c0-0.1,0-0.3,0-0.4C727.1,375.4,726.9,374.8,726.5,374.4z M595,371c-0.9-0.9-2.4-0.9-3.2,0.1c-0.4,0.4-0.8,0.8-1.2,1.3
			c-0.6,0.7-1.3,1.4-1.9,2.2c-0.4,0.4-0.5,0.9-0.5,1.5c0,0.1,0,0.3,0,0.4h4.9c0.1-0.1,0.3-0.3,0.4-0.4c0.2-0.2,0.3-0.4,0.5-0.6
			c0.4-0.4,0.7-0.8,1.1-1.2C595.9,373.3,595.9,371.9,595,371z"/>
	</g>
	<g>
		<g>
			<path class="st9" d="M215.2,234.5c-0.5,5.2,4.2,9.3,6.5,14c3.7,7.5,1.3,16.6-2.4,24.1c-10.7,21.4-30.6,36-51.6,48.3
				c-5.2,3-11.7-1.2-10.9-7.1c1.5-11.9,0.9-24.1-1.9-35.9L215.2,234.5z"/>
		</g>
		<g>
			<path class="st9" d="M172.9,191.1c-5-1.5-7-7.4-10.5-11.3c-5.5-6.3-14.9-7.5-23.2-6.8c-23.9,1.8-44.9,14.8-64.2,29.6
				c-4.8,3.7-3.3,11.3,2.5,12.8c11.6,3.1,22.7,8.3,32.5,15.3L172.9,191.1z"/>
		</g>
		<g>
			<path class="st10" d="M148.4,291.9c51.7-21.3,91.8-68.7,104.3-123.2c0.5-2.3,0.9-5.1-0.9-6.7c-1-0.9-2.4-1.1-3.7-1.2
				c-52.2-6-115.4,31.7-143.6,75.9L148.4,291.9z"/>
		</g>
		<g>
			<path class="st7" d="M244.9,193.6c3.2-8.1,5.9-16.4,7.8-25c0.5-2.3,0.9-5.1-0.9-6.7c-1-0.9-2.4-1.1-3.7-1.2
				c-10.7-1.2-21.8-0.6-33,1.5C226.1,171.6,236,182.1,244.9,193.6z"/>
		</g>
		
			<ellipse transform="matrix(0.7071 -0.7071 0.7071 0.7071 -94.2239 195.8315)" class="st11" cx="189.3" cy="211.7" rx="22.6" ry="22.6"/>
	</g>
	<path class="st12" d="M47.7,76.2c-18.1,12.9-23,37.7-22,59.9c0.5,10.5,2.2,21.3,8.3,29.8c6.1,8.5,17.8,13.7,27.4,9.6
		c9.6-4.2,12.9-19.5,4.3-25.4c-7.5-5.1-17.8-0.9-24.8,4.8c-16.2,13.2-26,33.9-25.7,54.8c0.2,20.9,10.4,41.4,26.9,54.2"/>
	<g>
		<path class="st13" d="M72.3,304.1c2-16.1,14-30.5,29.5-35.2c6.2-1.9,13.5-2.2,18.9,1.5c8.1,5.5,8.5,18.2,2.9,26.2
			c-5.6,8-15.3,12.1-24.8,14.2c1-3.8,0.7-9.6-3.3-9.8c-1.1-0.1-2.2,0.4-3.1,0.9c-7.4,3.5-14.7,6.9-22.1,10.4L72.3,304.1z"/>
	</g>
</g>
</svg>
