<?xml version="1.0" encoding="utf-8"?>
<!-- Generator: Adobe Illustrator 26.0.2, SVG Export Plug-In . SVG Version: 6.00 Build 0)  -->
<svg version="1.1"
	 id="svg2" inkscape:export-filename="C:\Users\MagWhiz\Documents\Diseños\Iconos\No.png" xmlns:cc="http://creativecommons.org/ns#" xmlns:dc="http://purl.org/dc/elements/1.1/" xmlns:inkscape="http://www.inkscape.org/namespaces/inkscape" xmlns:rdf="http://www.w3.org/1999/02/22-rdf-syntax-ns#" xmlns:sodipodi="http://sodipodi.sourceforge.net/DTD/sodipodi-0.dtd" xmlns:svg="http://www.w3.org/2000/svg"
	 xmlns="http://www.w3.org/2000/svg" xmlns:xlink="http://www.w3.org/1999/xlink" x="0px" y="0px" viewBox="0 0 19.4 19.4"
	 style="enable-background:new 0 0 19.4 19.4;" xml:space="preserve">
<style type="text/css">
	.st0{fill:#548FF8;}
</style>
<sodipodi:namedview  bordercolor="#666666" borderopacity="1.0" id="base" inkscape:current-layer="layer1" inkscape:cx="13.791118" inkscape:cy="9.9861555" inkscape:document-units="px" inkscape:guide-bbox="true" inkscape:pageopacity="0.0" inkscape:pageshadow="2" inkscape:window-height="1002" inkscape:window-maximized="1" inkscape:window-width="1280" inkscape:window-x="-8" inkscape:window-y="-8" inkscape:zoom="11.313709" pagecolor="#ffffff" showgrid="false" showguides="true">
	</sodipodi:namedview>
<path id="rect4669" inkscape:connector-curvature="0" inkscape:export-filename="C:\Users\MagWhiz\Downloads\Toolbar\toolbar contexto.png" inkscape:export-xdpi="90" inkscape:export-ydpi="90" sodipodi:nodetypes="ssssssssss" class="st0" d="
	M9.7,0C4.4,0,0,4.3,0,9.7c0,5.3,4.4,9.7,9.7,9.7s9.7-4.4,9.7-9.7C19.4,4.3,15,0,9.7,0z M9.7,2.2c4.1,0,7.4,3.3,7.4,7.4
	c0,4.1-3.3,7.5-7.4,7.5s-7.5-3.3-7.5-7.5C2.2,5.5,5.6,2.2,9.7,2.2z"/>
<path id="path3031" inkscape:connector-curvature="0" class="st0" d="M7,5.4L5.4,7l2.6,2.7l-2.6,2.6L7,13.9l2.6-2.6l2.7,2.6l1.6-1.6
	l-2.7-2.6L13.9,7l-1.6-1.6L9.7,8.1L7,5.4L7,5.4z"/>
</svg>
