<?xml version="1.0" encoding="utf-8"?>
<!-- Generator: Adobe Illustrator 26.0.2, SVG Export Plug-In . SVG Version: 6.00 Build 0)  -->
<svg version="1.1" id="Layer_1" xmlns="http://www.w3.org/2000/svg" xmlns:xlink="http://www.w3.org/1999/xlink" x="0px" y="0px"
	 viewBox="0 0 552.8 623.5" style="enable-background:new 0 0 552.8 623.5;" xml:space="preserve">
<style type="text/css">
	.st0{fill:url(#SVGID_1_);}
</style>
<linearGradient id="SVGID_1_" gradientUnits="userSpaceOnUse" x1="276.4045" y1="-9.094947e-13" x2="276.4045" y2="623.4894">
	<stop  offset="0" style="stop-color:#2B6CE0"/>
	<stop  offset="1" style="stop-color:#548FF8"/>
</linearGradient>
<path class="st0" d="M531.5,31.4H314.9c-2.6,0-5.2-1-7-2.9L281.5,2.1c-2.8-2.8-7.4-2.8-10.2,0L245,28.4c-1.9,1.9-4.4,2.9-7,2.9H21.3
	C9.6,31.4,0,40.9,0,52.7v549.4c0,11.8,9.6,21.3,21.3,21.3h510.1c11.8,0,21.3-9.6,21.3-21.3V52.7C552.8,40.9,543.3,31.4,531.5,31.4z"
	/>
</svg>
