<?xml version="1.0" encoding="utf-8"?>
<!-- Generator: Adobe Illustrator 26.0.2, SVG Export Plug-In . SVG Version: 6.00 Build 0)  -->
<svg version="1.1" id="Layer_1" xmlns="http://www.w3.org/2000/svg" xmlns:xlink="http://www.w3.org/1999/xlink" x="0px" y="0px"
	 viewBox="0 0 336.6 383.9" style="enable-background:new 0 0 336.6 383.9;" xml:space="preserve">
<style type="text/css">
	.st0{fill:#548FF8;}
	.st1{fill:#2B6CE0;}
	.st2{fill:#FFFFFF;}
	.st3{fill:#E1DEE1;}
</style>
<path class="st0" d="M156,0c2,0,4,0,6,0c-0.4,2.1-1.9,1.3-3.1,1.2c18.8,2.6,36.6,8.7,53.4,17.7c12.7,6.8,24.3,15.1,34.9,24.9
	c14.9,13.6,26.9,29.5,36,47.4c8.4,16.4,14.1,33.9,16.6,52.2c4.3,31.8,0.7,62.5-12.2,92c-7.4,17.1-17.5,32.4-30,46.3
	c-21.2,23.5-47,39.4-77.2,48.5c-6.3,1.9-11.5,5.3-15.1,11c-3.8,6.2-7.3,12.5-11,18.7c-0.9,1.6-1.5,3.5-3.6,4.1
	c-1.6-0.2-2.1-1.7-2.7-2.8c-3.5-5.9-6.9-11.9-10.4-17.8c-3.8-6.6-9.1-11-16.5-13.2c-20.8-6.1-39.8-15.9-56.8-29.4
	c-25.2-20.2-43.6-45.4-54.6-75.9C2.4,204-0.8,182.5,0.2,160.4c1-21,5.7-41.2,14.3-60.5C23.3,80,35.4,62.4,51,47.3
	c17.5-17,37.6-29.9,60.6-38.2c14-5,28.3-8.8,43.4-8.8C155.4,0.4,155.7,0.2,156,0z"/>
<path class="st1" d="M165,383.9c-6.1-3-8.1-9.2-11.2-14.4c-1.1-1.9-2.6-3.6-3-5.8c4.2-5.7,7.6-12,10.9-18.2
	c4.5-8.5,10.9-13.9,20.3-16.7c19.7-5.8,37.6-15.3,53.9-28.1c14.9-11.6,27.3-25.3,37.7-41c13.2-20,21.3-42.1,25.3-65.7
	c2.2-13,2.4-26.1,1.4-39.1c-1.6-20.2-6.5-39.6-15.4-58c-7.6-15.8-17.2-30.2-29.1-43.1c-21.1-22.8-46.5-38.2-76.1-47.1
	c-6.5-2-13.2-3.5-20-4.4c-0.6-0.1-1.2-0.1-1.6-0.9c1-1.3,3,0.2,3.9-1.3c6.2,0,12.5,0,18.7,0c5.7,1.6,11.6,1.8,17.4,2.8
	c17.9,3,34.8,8.6,50.6,17.4c42.5,23.8,70.9,59.1,82.5,106.4c14.1,57.8,1,109.7-38.4,154.4c-20.8,23.5-46.7,39.4-76.8,48.2
	c-8.2,2.4-14.1,7.4-18.1,15.1c-5.7,10.7-11.9,21.1-18,31.6c-1.9,3.4-4.8,5.8-8.1,7.8C169.4,383.9,167.2,383.9,165,383.9z"/>
<path class="st2" d="M163.3,193.5c-7.6-1.1-13.6-7-14-14.3c-1.6-28-3.2-56-4.6-84c-0.6-12.3,5.6-21.3,16.6-25.1
	c0.7-0.2,1.4-0.3,2.2-0.4c9.3,1.6,17.1,11.5,17.5,22.1c0.3,7.8-0.5,15.5-1,23.2c-0.4,5.8-0.7,11.7-1,17.5
	c-0.8,14.9-1.9,29.9-2.5,44.8C176.2,185.9,170.6,192.7,163.3,193.5z"/>
<path class="st3" d="M163.3,193.5c9.1-3.6,12-10.5,12.3-20c0.4-15.1,1.8-30.2,2.8-45.3c0.3-4.7,0.1-9.4,0.7-14.1
	c0.8-6.8,0.8-13.6,0.8-20.5c0.1-10.2-4.6-17.5-13.6-22.1c-1-0.5-1.9-1.1-2.8-1.7c9.5-3.1,21.3,2.2,26.3,11.3
	c2.7,4.9,3.9,10.1,3.1,15.8c-0.7,5.1-0.5,10.2-0.8,15.3c-1.1,15.9-1.6,31.8-2.5,47.7c-0.4,6.7-0.9,13.4-1.4,20.1
	c-0.6,7.3-7.3,13.4-15.6,14C169.5,194.2,166.3,194.7,163.3,193.5z"/>
<path class="st2" d="M162.6,252.7c-6.3-0.6-10.2-4.2-11.3-10.4c-0.6-3.7-0.6-7.5-0.2-11.1c0.9-7.6,6.1-11.7,13.8-11.4
	c6.8,2.5,9.2,5.8,9.2,13.1c0,3,0.1,6,0,8.9c-0.3,4.8-3.1,8-6.9,10.4C165.8,253,164.2,253.4,162.6,252.7z"/>
<path class="st3" d="M162.6,252.7c5.7-0.6,10.5-5.8,10.6-11.5c0-1.1-0.1-2.2,0-3.4c0.8-7.7-0.6-14.3-8.2-18.1c2.7,0,5.5-0.1,8.2-0.1
	c7.2,0,11.8,3.6,13.1,10.6c0.7,3.9,0.7,8,0,11.9c-1,5.8-4.4,9.7-10.5,10.6C171.4,253.5,167,253.8,162.6,252.7z"/>
</svg>
