<?xml version="1.0" encoding="utf-8"?>
<!-- Generator: Adobe Illustrator 26.0.2, SVG Export Plug-In . SVG Version: 6.00 Build 0)  -->
<svg version="1.1" id="Layer_1" xmlns="http://www.w3.org/2000/svg" xmlns:xlink="http://www.w3.org/1999/xlink" x="0px" y="0px"
	 viewBox="0 0 1080 504" style="enable-background:new 0 0 1080 504;" xml:space="preserve">
<style type="text/css">
	.st0{fill:none;stroke:#646DA2;stroke-width:10.3953;stroke-miterlimit:10;}
	.st1{fill:#646DA2;}
	.st2{fill:#FFFFFF;}
	.st3{fill:#EBB28B;}
	.st4{fill:#8F6271;}
	.st5{fill:#B77191;}
	.st6{fill:#A25C30;}
	.st7{fill:#88C9AD;}
	.st8{fill:#6B5491;}
	.st9{fill:none;stroke:#B77191;stroke-width:10.3953;stroke-miterlimit:10;}
</style>
<ellipse transform="matrix(0.3849 -0.9229 0.9229 0.3849 171.0685 372.0034)" class="st0" cx="364.6" cy="57.7" rx="13.8" ry="13.8"/>
<g>
	<g>
		<g>
			<path class="st1" d="M663.9,121.2c-0.6,1.6-1.2,3.2-1.9,4.8c-4.8,10.9-13.7,21.2-25.5,22.7c-16.6,2-32.6-15.1-29.9-31.5
				c1-5.9,4-11.3,8-15.7c5.5-5.9,12.8-9.9,20.4-12.8c4.1-1.6,8.3-2.9,12.3-4.8c2.8-1.3,5.4-3.2,8.5-3.9c5.6-1.4,10.1,3.1,13.5,7
				c1.5,1.8,3.9,4,3.4,6.6c-0.7,3.5-2.5,6.9-3.5,10.4C667.5,109.7,665.9,115.5,663.9,121.2z"/>
		</g>
		<g>
			<g>
				<g>
					<path class="st2" d="M666.4,87.3c-5,11-10,21.9-15,32.9c-0.4,1,1,1.8,1.4,0.8c5-11,10-21.9,15-32.9
						C668.2,87.1,666.8,86.3,666.4,87.3L666.4,87.3z"/>
				</g>
			</g>
			<g>
				<g>
					<path class="st2" d="M632,104.4c9.8-7,19.6-14,29.4-21c0.9-0.6,0-2.1-0.8-1.4c-9.8,7-19.6,14-29.4,21
						C630.3,103.6,631.2,105,632,104.4L632,104.4z"/>
				</g>
			</g>
			<g>
				<g>
					<path class="st2" d="M652.7,121c0.6-3.1,2.2-6.1,1-9.3c-1.1-2.8-4.1-3.6-6.8-2.5c-2.6,1-4.5,3.4-5,6.1
						c-0.2,1.1-0.2,2.5,1.1,2.8c1.3,0.2,2.6-1,3.3-2c0.8-1.1,1.4-2.5,1.9-3.8c0.5-1.6,0.3-2.9-0.8-4.1c-2.1-2.4-4.6-4.3-7.9-3
						c-1.7,0.7-6.4,3.1-4.3,5.6c0.7,0.8,2,1.1,3,0.7c1.3-0.5,2.2-2,2.7-3.2c0.7-1.6,1.2-3.4,0.6-5.1c-0.5-1.3-1.6-2.5-3-2.7
						c-1.2-0.2-2.6,0.3-3.7,0.7c-1.3,0.5-2.5,1.1-3.8,1.6c-1,0.4-0.6,2,0.4,1.6c1.4-0.5,2.7-1.2,4-1.7c1.5-0.6,3.2-1.2,4.2,0.5
						c1.1,1.9,0,4.7-1.4,6.2c-0.3,0.3-0.7,0.6-1.2,0.6c-0.5,0-0.8-0.4-0.6-0.9c0.4-0.9,1.8-1.5,2.6-1.9c1-0.5,2.1-1,3.2-0.8
						c1.1,0.2,2,1,2.8,1.8c0.7,0.7,1.7,1.6,1.7,2.6c-0.1,1-0.7,2.2-1.1,3.1c-0.4,0.8-0.9,1.6-1.6,2.1c-0.1,0.1-0.4,0.3-0.5,0.3
						c-0.3,0,0.1,0.3-0.1-0.2c-0.1-0.3,0.2-1.1,0.3-1.5c0.6-1.8,2.1-3.3,3.9-4c2.4-0.9,4.5,0.3,4.8,2.8c0.3,2.4-0.9,4.7-1.4,7.1
						C650.9,121.6,652.5,122,652.7,121L652.7,121z"/>
				</g>
			</g>
		</g>
		<path class="st3" d="M681.6,70.3L681.6,70.3c4.7,4.6,4.8,12,0.2,16.7l-8.4,8.8l-16.9-16.5l8.4-8.8
			C669.5,65.9,676.9,65.8,681.6,70.3z"/>
	</g>
	<g>
		<g>
			<g>
				<path class="st1" d="M634.2,165.7c0-2.9,0-5.9,0-8.8c0-0.7-0.6-1.3-1.3-1.3c-0.7,0-1.3,0.6-1.3,1.3c0,2.9,0,5.9,0,8.8
					c0,0.7,0.6,1.3,1.3,1.3C633.6,167,634.2,166.4,634.2,165.7L634.2,165.7z"/>
			</g>
		</g>
		<g>
			<g>
				<path class="st1" d="M602.6,152.5c2.5-2.6,5-5.1,7.5-7.7c0.5-0.5,0.5-1.3,0-1.8c-0.5-0.5-1.3-0.5-1.8,0c-2.5,2.6-5,5.1-7.5,7.7
					c-0.5,0.5-0.5,1.3,0,1.8C601.3,153,602.1,153,602.6,152.5L602.6,152.5z"/>
			</g>
		</g>
		<g>
			<g>
				<path class="st1" d="M595.7,117.5c-3.7-0.2-7.5-0.4-11.2-0.7c-0.7,0-1.3,0.6-1.3,1.3c0,0.7,0.6,1.2,1.3,1.3
					c3.7,0.2,7.5,0.4,11.2,0.7c0.7,0,1.3-0.6,1.3-1.3C597,118,596.4,117.5,595.7,117.5L595.7,117.5z"/>
			</g>
		</g>
	</g>
</g>
<g>
	<path class="st3" d="M1080,0v250.1c-28,14.8-61.2,18-94,15.2c-7.8-0.7-15.6-1.7-23.3-3c-5-0.8-10-1.8-14.8-2.9
		c-1.7-0.4-3.3-0.7-5-1.1c-6.7-1.5-13.4-3.2-20-5.1h0c-34.9-9.8-68.4-24.3-97.9-45.2c-36.5-25.8-66.7-61.6-81.7-103.7
		c-5.4-15.1-9.9-32.2-17.9-45.9c-1.8-3-3.7-5.9-5.9-8.5h0c-4.5-5.5-10-9.9-16.8-12.8c-10.4-4.4-22.3-4-33.4-2.2
		c-8,1.3-15.9,3.4-23.7,5.9c0,0,0,0,0,0c-9.8,3.2-19.4,7-29,11.1c-23.2,9.8-46.1,20.6-70.5,24.5c0,0,0,0,0,0
		c-4.5,0.7-9,1.2-13.5,1.4c-2.7,0.1-5.3,0.2-8,0.1c-4.3-0.1-8.6-0.5-12.8-1c-1.4-0.2-2.7-0.4-4.1-0.6c-20.7-3.5-40.6-12.3-58.1-24.1
		c-19.2-12.9-36.3-29.9-44.9-51.4c-0.1-0.3-0.2-0.5-0.3-0.8H1080z"/>
</g>
<g>
	<g>
		<polygon class="st4" points="309.8,195 312.6,233.9 321.7,206.1 389.9,177.4 		"/>
		<path class="st5" d="M290.9,185.2c0,0,19.1,5.6,18.9,10.2l79.3-18.1C389.1,177.3,343.1,168.7,290.9,185.2z"/>
		<path class="st6" d="M312.3,234.8c-0.1,1.3,26.2-15.3,26.2-15.3L320.8,206C320.8,206,313.1,223.3,312.3,234.8z"/>
		<path class="st3" d="M320.8,206c0,0,23,15.6,21.3,31.5l48.3-60.4C390.4,177.1,326.9,201.7,320.8,206z"/>
	</g>
	<g>
		<path class="st3" d="M290,192.5c1.3,0.1,1.8,0.1,2.9,0.4c1.1,0.2,2.2,0.5,3.2,0.9c0.5,0.2,1,0.3,1.5,0.5c0.2,0.1,0.3,0.1,0.1,0
			c0.1,0.1,0.3,0.1,0.4,0.2c0.3,0.1,0.5,0.2,0.8,0.4c1,0.5,1.9,1.1,2.9,1.7c0.9,0.6,2.4,0.2,3-0.8c0.6-1.1,0.2-2.3-0.8-3
			c-4.1-2.8-9-4.3-13.9-4.6c-1.1-0.1-2.2,1-2.2,2.2C287.9,191.6,288.8,192.5,290,192.5L290,192.5z"/>
	</g>
	<g>
		<path class="st5" d="M362.6,232.7c8.6-12.2,18-23.8,28-34.9c1.9-2.1-1.2-5.1-3.1-3.1c-10.3,11.3-19.9,23.3-28.7,35.8
			c-0.7,1-0.2,2.4,0.8,3C360.7,234.1,361.9,233.6,362.6,232.7L362.6,232.7z"/>
	</g>
</g>
<g>
	<path class="st5" d="M33.3,91.5c-3.6-0.1-7.3-0.2-11.4-0.2h-0.2c-1.2,0-2.2,1-2.2,2.2c0,1.2,1,2.2,2.2,2.2h0.2c4,0,7.7,0,11.2,0.2
		c0,0,0,0,0.1,0c1.2,0,2.1-0.9,2.2-2.1C35.4,92.5,34.5,91.5,33.3,91.5z M10.2,91.5C6.8,91.5,3.4,91.6,0,91.7v4.3
		c3.4-0.1,6.8-0.2,10.2-0.3c1.2,0,2.1-1,2.1-2.2C12.3,92.4,11.4,91.4,10.2,91.5z M56.5,93.5c-3.7-0.5-7.6-1-11.6-1.3
		c-1.2-0.1-2.2,0.8-2.3,2c-0.1,1.2,0.8,2.2,2,2.3c3.9,0.3,7.7,0.8,11.3,1.3c0.1,0,0.2,0,0.3,0c1.1,0,2-0.8,2.1-1.8
		C58.5,94.8,57.7,93.7,56.5,93.5z M79.3,98.7c-0.9-0.3-1.9-0.6-2.8-0.9c-2.8-0.8-5.6-1.6-8.5-2.2c-1.2-0.3-2.3,0.5-2.6,1.6
		c-0.3,1.2,0.5,2.3,1.6,2.6c2.8,0.6,5.6,1.4,8.2,2.1c0.9,0.3,1.8,0.5,2.7,0.8c0.2,0.1,0.5,0.1,0.7,0.1c0.9,0,1.8-0.6,2-1.5
		C81,100.3,80.4,99.1,79.3,98.7z M100.6,108.5c-3.3-2-6.8-3.8-10.4-5.5c-1.1-0.5-2.4,0-2.9,1.1c-0.5,1.1,0,2.4,1.1,2.9
		c3.5,1.6,6.8,3.3,10,5.2c0.4,0.2,0.7,0.3,1.1,0.3c0.7,0,1.4-0.4,1.8-1.1C102,110.4,101.7,109.1,100.6,108.5z M119.1,123.1
		c-2.7-2.8-5.6-5.5-8.7-7.9c-0.9-0.7-2.3-0.6-3,0.3c-0.7,0.9-0.6,2.3,0.4,3c3,2.4,5.8,4.9,8.3,7.6c0.4,0.4,1,0.7,1.6,0.7
		c0.5,0,1.1-0.2,1.5-0.6C119.9,125.3,119.9,124,119.1,123.1z M132.3,142.7c-1.6-3.6-3.5-7-5.8-10.4c-0.7-1-2-1.2-3-0.6
		c-1,0.7-1.2,2-0.6,3c2.1,3.1,3.9,6.4,5.4,9.7c0.4,0.8,1.1,1.3,2,1.3c0.3,0,0.6-0.1,0.9-0.2C132.3,145,132.8,143.8,132.3,142.7z
		 M136.1,154c-0.2-1.2-1.4-1.9-2.6-1.7c-1.2,0.2-1.9,1.4-1.7,2.6c0.7,3.4,1.1,6.9,1.1,10.5l0,0.5c0,1.2,1,2.2,2.2,2.2h0
		c1.2,0,2.1-1,2.2-2.1l0-0.6C137.2,161.5,136.8,157.7,136.1,154z M124.6,168.7c-0.1-1.2-1.2-2-2.4-1.9c-3.9,0.5-7.8,1.4-11.7,2.8
		c-1.1,0.4-1.7,1.7-1.3,2.8c0.3,0.9,1.1,1.4,2,1.4c0.2,0,0.5,0,0.7-0.1c3.5-1.3,7.1-2.1,10.7-2.5C123.9,171,124.8,169.9,124.6,168.7
		z M145,174.1c-3.8-2.8-7.2-4.8-10.5-6c-1.1-0.4-2.4,0.1-2.8,1.3c-0.4,1.1,0.1,2.4,1.3,2.8c2.9,1.1,6,2.9,9.4,5.4
		c0.4,0.3,0.8,0.4,1.3,0.4c0.7,0,1.3-0.3,1.7-0.9C146.2,176.1,146,174.8,145,174.1z M102.8,175.6c-0.7-1-2-1.2-3-0.6
		c-3.6,2.4-6.6,5.1-9,8.1c-0.7,0.9-0.6,2.3,0.3,3c0.4,0.3,0.9,0.5,1.4,0.5c0.6,0,1.3-0.3,1.7-0.8c2.1-2.7,4.8-5.1,8-7.2
		C103.2,178,103.5,176.6,102.8,175.6z M134.2,175.2c-1.2-0.2-2.3,0.5-2.6,1.7c-0.8,3.6-1.9,7.2-3.4,10.5c-0.5,1.1,0,2.4,1.1,2.9
		c0.3,0.1,0.6,0.2,0.9,0.2c0.8,0,1.6-0.5,2-1.3c1.6-3.6,2.9-7.4,3.7-11.4C136.2,176.6,135.4,175.5,134.2,175.2z M162.3,189.8
		c-3.2-3.3-5.9-5.9-8.3-8.2c-0.9-0.8-2.2-0.8-3,0.1c-0.8,0.9-0.8,2.2,0.1,3.1c2.4,2.2,5,4.8,8.1,8c0.4,0.4,1,0.7,1.5,0.7
		c0.5,0,1.1-0.2,1.5-0.6C163.1,192.1,163.1,190.7,162.3,189.8z M87.9,192.6c-1.2-0.3-2.3,0.4-2.6,1.5c-0.5,2.1-0.8,4.4-0.8,6.6
		c0,0.5,0,1.1,0,1.6c0.1,1.5,0.3,3,0.7,4.3c0.3,1,1.1,1.6,2.1,1.6c0.2,0,0.4,0,0.6-0.1c1.1-0.3,1.8-1.5,1.5-2.7
		c-0.3-1-0.5-2.2-0.5-3.4c0-0.5,0-0.9,0-1.4c0-1.9,0.2-3.7,0.7-5.5C89.7,194.1,89,192.9,87.9,192.6z M125.7,196.5
		c-1-0.7-2.3-0.5-3,0.4c-2.3,3-4.8,5.6-7.6,7.8c-0.9,0.7-1.1,2.1-0.4,3c0.4,0.5,1.1,0.8,1.7,0.8c0.5,0,0.9-0.1,1.3-0.4
		c3.1-2.4,6-5.3,8.5-8.6C126.8,198.5,126.7,197.2,125.7,196.5z M178.3,206.5c-2.7-2.8-5.3-5.5-8-8.3c-0.8-0.9-2.2-0.9-3.1-0.1
		c-0.9,0.8-0.9,2.2-0.1,3.1c2.7,2.8,5.3,5.5,8,8.3c0.4,0.4,1,0.7,1.5,0.7c0.5,0,1.1-0.2,1.5-0.6
		C179.1,208.7,179.1,207.3,178.3,206.5z M108.4,211.2c-0.4-1.1-1.7-1.7-2.8-1.3c-0.7,0.2-1.3,0.5-2,0.7c-3,0.9-5.9,1.2-8.1,0.8
		c-1.2-0.2-2.3,0.6-2.5,1.7c-0.2,1.2,0.5,2.3,1.7,2.5c1,0.2,2,0.3,3,0.3c2.2,0,4.7-0.4,7.2-1.2c0.8-0.2,1.5-0.5,2.2-0.8
		C108.2,213.6,108.8,212.3,108.4,211.2z M194.8,222.2c-2.7-2.3-5.5-4.8-8.4-7.7c-0.9-0.8-2.2-0.8-3.1,0.1c-0.8,0.9-0.8,2.2,0.1,3
		c3,2.9,5.8,5.5,8.6,7.8c0.4,0.4,0.9,0.5,1.4,0.5c0.6,0,1.2-0.2,1.6-0.8C195.8,224.3,195.7,223,194.8,222.2z M290.8,234.6
		c-0.6-1-1.9-1.3-3-0.7l-0.8,0.5c-1,0.6-1.3,1.9-0.7,3c0.4,0.7,1.1,1.1,1.9,1.1c0.4,0,0.8-0.1,1.1-0.3l0.8-0.5
		C291.1,237,291.5,235.7,290.8,234.6z M213.1,235.6c-3.1-1.8-6.2-3.9-9.4-6.3c-1-0.7-2.3-0.5-3,0.5c-0.7,1-0.5,2.3,0.5,3
		c3.3,2.4,6.6,4.6,9.8,6.5c0.3,0.2,0.7,0.3,1.1,0.3c0.7,0,1.5-0.4,1.9-1.1C214.5,237.5,214.1,236.2,213.1,235.6z M280,240.7
		c-0.5-1.1-1.8-1.6-2.9-1.1c-3.5,1.6-7,2.9-10.5,3.9c-1.1,0.3-1.8,1.5-1.5,2.7c0.3,0.9,1.1,1.6,2.1,1.6c0.2,0,0.4,0,0.6-0.1
		c3.6-1.1,7.4-2.5,11.1-4.1C280,243.1,280.5,241.8,280,240.7z M233.6,244.3c-3.5-0.9-7-2.1-10.5-3.6c-1.1-0.5-2.4,0-2.8,1.1
		c-0.5,1.1,0,2.4,1.1,2.8c3.7,1.6,7.5,2.9,11.2,3.8c0.2,0,0.3,0.1,0.5,0.1c1,0,1.8-0.6,2.1-1.6C235.5,245.8,234.8,244.6,233.6,244.3
		z M258.1,247.7c-0.1-1.2-1.2-2-2.4-1.9c-3.7,0.4-7.4,0.5-11.1,0.3c-1.2-0.1-2.2,0.8-2.3,2s0.8,2.2,2,2.3c1.4,0.1,2.9,0.2,4.3,0.2
		c2.5,0,5.1-0.2,7.6-0.4C257.4,249.9,258.2,248.8,258.1,247.7z"/>
</g>
<g>
	<path class="st3" d="M309.3,0c-5.3,9.7-11,19-17.5,27.9c-16.4,22.6-38.1,42.3-64.3,52c-10.6,3.9-21.8,6.2-33,7.4
		C145.8,92.8,95.2,78.9,56,49.5C37.9,35.9,22.4,19,10,0H309.3z"/>
</g>
<g>
	<path class="st3" d="M730,62c-1.5-1.2-3.1-2.4-4.7-3.5c-0.9-0.6-1.7-1.2-2.6-1.7c-20.5-13-45.6-15.2-69.2-12.6
		c-12.7,1.4-25,4.2-37.1,7.8c-13.3,4-26.4,8.8-39.4,13.6c-10.2,3.8-20.6,7.6-31,10.9c-10.2,3.2-20.6,6-31.1,7.8
		c-1.5,0.3-3,0.5-4.5,0.7c-7,1-14.1,1.6-21.3,1.6c-25.3,0-50-8.2-70.2-23.6c-20.5-15.6-35.4-37.4-41.7-62.5c0-0.2-0.1-0.4-0.1-0.6
		h4.4c0.9,3.4,1.9,6.7,3.1,10c8.3,23.3,25.1,43,46.1,55.9c10.1,6.2,21.2,10.8,32.7,13.5c14,3.3,28.6,3.5,42.9,1.8
		c0.8-0.1,1.6-0.2,2.3-0.3c1.5-0.2,3-0.4,4.4-0.7c3.9-0.6,7.7-1.4,11.5-2.3c23.3-5.3,45.7-14.6,68-22.7
		c17.2-6.2,34.8-11.6,52.9-14.4c6.9-1.1,13.9-1.8,20.9-2c18.4-0.5,36.9,2.6,53.1,11c4.8,2.5,9.4,5.5,13.7,9
		C735.2,60.7,732.2,63.7,730,62z"/>
</g>
<g>
	<g>
		<path class="st5" d="M725.8,119.7c4.7,18.2,12.4,35.6,22.6,51.4c10.2,15.8,22.8,30.1,37.4,42c8.2,6.8,17,12.8,26.4,17.9
			c2.4,1.3,4.6-2.4,2.2-3.7c-16.2-8.9-30.8-20.5-43.3-34c-12.5-13.5-22.8-28.9-30.6-45.6c-4.4-9.4-7.9-19.1-10.5-29.1
			C729.3,115.8,725.1,117,725.8,119.7L725.8,119.7z"/>
	</g>
	<g>
		<path class="st5" d="M846.2,252.9c11.8,5.3,24.2,9.2,36.9,11.7c2.7,0.5,3.9-3.6,1.1-4.2c-12.3-2.4-24.4-6.2-35.9-11.3
			c-1.1-0.5-2.3-0.3-3,0.8C844.8,250.9,845.1,252.5,846.2,252.9L846.2,252.9z"/>
	</g>
</g>
<g>
	<path class="st5" d="M552.4,108.1c-3.6-0.1-7.2-0.7-10.8-1.8c-1.1-0.3-2.3,0.3-2.7,1.5c-0.3,1.1,0.3,2.3,1.5,2.7
		c3.9,1.2,7.9,1.8,11.9,2h0.1c1.2,0,2.1-0.9,2.2-2.1C554.5,109.1,553.6,108.1,552.4,108.1z M531.6,101.9c-3.2-1.9-6.1-4.1-8.7-6.7
		c-0.8-0.9-2.2-0.9-3,0c-0.9,0.8-0.9,2.2,0,3c2.8,2.8,6,5.3,9.5,7.4c0.3,0.2,0.7,0.3,1.1,0.3c0.7,0,1.5-0.4,1.9-1.1
		C532.9,103.8,532.6,102.5,531.6,101.9z M516.2,86.5c-0.5-0.7-0.9-1.5-1.3-2.3c-0.5-0.8-0.9-1.7-1.3-2.6c-0.2-0.5-0.4-1-0.7-1.4
		c-0.5-1.1-0.9-2.2-1.3-3.3c0-0.1-0.1-0.3-0.1-0.4c-0.4-1.1-1.7-1.7-2.8-1.3c-0.5,0.2-1,0.6-1.2,1.1c-0.3,0.5-0.3,1.1-0.1,1.7
		c0.4,1,0.7,2,1.1,2.9c0.4,0.9,0.8,1.8,1.2,2.6c0.2,0.5,0.5,1,0.7,1.5c0.7,1.3,1.4,2.6,2.1,3.8c0.4,0.7,1.1,1,1.9,1
		c0.4,0,0.8-0.1,1.1-0.3C516.5,88.9,516.8,87.5,516.2,86.5z M508.6,65.7c-0.7-3.6-1.1-6.9-1.1-10c0-0.3,0-0.7,0-1
		c0-1.2-0.9-2.2-2.1-2.2c-1.2,0-2.2,0.9-2.2,2.1c0,0.4,0,0.7,0,1.1c0,3.4,0.4,6.9,1.1,10.8c0.2,1,1.1,1.8,2.1,1.8c0.1,0,0.3,0,0.4,0
		C508,68,508.8,66.9,508.6,65.7z M538.1,40.9c-0.6-1-1.9-1.4-2.9-0.8c-0.5,0.3-1,0.5-1.5,0.7c-2.3,0.8-5,0.9-8.2,0.2
		c-1.2-0.2-2.3,0.5-2.6,1.7c-0.2,1.2,0.5,2.3,1.7,2.6c1.7,0.3,3.3,0.5,4.9,0.5c2,0,3.9-0.3,5.6-0.9c0.8-0.3,1.5-0.6,2.2-1
		C538.4,43.2,538.8,41.9,538.1,40.9z M523.6,26.6c-0.5-1.1-1.8-1.5-2.9-0.9c-3.6,1.9-6.9,4.5-9.6,7.6c-0.4,0.4-0.5,0.9-0.5,1.4
		c-0.5,0.1-0.9,0.4-1.2,0.8c-1.6,2.2-2.9,4.6-3.9,7.1c-0.4,1.1,0.1,2.4,1.2,2.8c0.3,0.1,0.5,0.1,0.8,0.1c0.9,0,1.7-0.5,2-1.4
		c0.6-1.5,1.3-3,2.2-4.4c0.6,0.3,1.1,0.7,1.7,1c1,0.6,2.4,0.2,3-0.8c0.6-1,0.2-2.4-0.8-3c-0.4-0.2-0.9-0.5-1.3-0.8
		c0.1-0.1,0.1-0.1,0.2-0.2c2.3-2.7,5.2-5,8.3-6.6C523.7,28.9,524.1,27.6,523.6,26.6z M543.4,32c-0.9-4.4-4.7-7.6-10.2-8.4
		c-1.2-0.2-2.3,0.6-2.5,1.8c-0.2,1.2,0.6,2.3,1.8,2.5c1.8,0.3,5.9,1.3,6.6,5c0.2,1,1.1,1.7,2.1,1.7c0.1,0,0.3,0,0.4,0
		C542.9,34.3,543.6,33.1,543.4,32z M505.9,29.6c-2.5-2.6-4.7-5.6-6.6-8.8c-0.6-1-1.9-1.4-2.9-0.8c-1,0.6-1.4,1.9-0.8,3
		c2,3.5,4.5,6.7,7.2,9.6c0.4,0.4,1,0.7,1.6,0.7c0.5,0,1.1-0.2,1.5-0.6C506.7,31.8,506.8,30.4,505.9,29.6z M495,10.7
		c-0.2-0.5-0.3-1-0.4-1.5c-0.8-3-1.3-6.1-1.5-9.2h-4.3v0.1c0.2,3.5,0.8,6.9,1.6,10.2c0.1,0.5,0.3,1.1,0.5,1.6
		c0.3,0.9,1.1,1.5,2.1,1.5c0.2,0,0.4,0,0.6-0.1C494.7,13,495.3,11.8,495,10.7z"/>
</g>
<g>
	<path class="st2" d="M892.4,279.1L892.4,279.1l-0.6,0.5l-3.7,23.1l0,0l-2.3,14.3h0v0l38.6,0.5l0.5-0.4l50.6-42.9l48.3-40.8
		c2.4-2,1.6-6.8-1.7-10.6l-18.5-21.5c-4.5-5.2-10.7-7.2-13.9-4.5l-11.2,9.5l-0.1-0.1l-46,39l-18,15.2l0,0.1l-22,18.7L892.4,279.1z"
		/>
	<path class="st7" d="M945.1,260.9c-4.3-5.3-8.6-10.4-12.9-15.6l-17.7,15l0,0.1l-22,18.7l-0.1,0.1l-0.6,0.5l-3.7,23.1l-2.3,14.3h0
		l0,0l38.6,0.5l0.5-0.4l39.4-33.4C957.6,276.3,951.3,268.6,945.1,260.9z"/>
	<polygon class="st8" points="981.3,203.9 978.5,206.2 978.4,206 932.5,245.1 914.4,260.3 914.5,260.3 892.5,279 892.4,279.1 
		892.4,279.1 925.2,316.8 975.5,274.2 1014.1,241.6 	"/>
	<polygon class="st1" points="909,317.3 889.3,294.7 888.1,302.7 885.8,317 885.8,317 885.8,317 	"/>
	<g>
		<g>
			<path class="st2" d="M1008.5,243.7c-8.6-9.9-17.3-19.8-25.9-29.7c-1-1.2-2.7,0.5-1.7,1.7c8.6,9.9,17.3,19.8,25.9,29.7
				C1007.8,246.5,1009.5,244.8,1008.5,243.7L1008.5,243.7z"/>
		</g>
	</g>
	<g>
		<g>
			<path class="st2" d="M916.8,305c4.1-3.6,8.3-7.2,12.4-10.8c1.2-1-0.5-2.7-1.7-1.7c-4.1,3.6-8.3,7.2-12.4,10.8
				C913.9,304.3,915.6,306,916.8,305L916.8,305z"/>
		</g>
	</g>
	<g>
		<g>
			<path class="st2" d="M933.5,289.2c14.4-12.6,28.9-25.1,43.3-37.7c4.1-3.6,8.3-7.2,12.4-10.8c1.2-1-0.5-2.7-1.7-1.7
				c-14.4,12.6-28.9,25.1-43.3,37.7c-4.1,3.6-8.3,7.2-12.4,10.8C930.7,288.5,932.4,290.2,933.5,289.2L933.5,289.2z"/>
		</g>
	</g>
</g>
<g>
	
		<ellipse transform="matrix(0.9735 -0.2287 0.2287 0.9735 5.4527 194.2066)" class="st3" cx="840.7" cy="73.6" rx="14.2" ry="14.2"/>
	<g>
		<g>
			<path class="st2" d="M854.4,117.1c-5.1,5.2-12.5,6-18.9,2.7c-7.3-3.8-11.3-11.2-13.5-18.8c-2.7-9.2-4-19-4.6-28.6
				c-0.4-6.1-0.1-12.3,0.6-18.4c0.3-2.6,1.2-6,1.9-8.9c1-4.1,2.3-8.2,4.5-11.8c3.9-6.5,11.5-12,19.5-10.8
				c7.7,1.2,13.7,8.4,16.3,15.4c2.8,7.4,3.1,15.5,3.4,23.3c0.3,8.7,1.1,17.5,0.6,26.2c-0.3,4.5-1,9-2.1,13.4c-1,4-2.2,7.9-4.2,11.5
				C856.9,114,855.7,115.6,854.4,117.1c-1.3,1.4,0.8,3.4,2.1,2.1c3-3.2,5.1-7.1,6.5-11.2c1.6-4.4,2.7-9,3.4-13.6
				c1.5-9.6,0.5-19.2,0.2-28.9c-0.3-8.4-0.3-17-2.6-25.2c-2.2-7.8-7.3-15.6-14.8-19.1c-8-3.7-17-0.9-23,5.1
				c-6.8,6.6-8.7,15.9-10.7,24.7c-0.6,2.4-0.7,4.8-0.9,7.2c-0.3,3.1-0.5,6.3-0.5,9.4c0.1,4.9,0.6,9.9,1.2,14.8
				c0.7,5.1,1.5,10.2,2.6,15.2c2,8.6,5.5,17.3,12.8,22.7c6,4.5,14.2,6,21,2.4c1.7-0.9,3.3-2.2,4.7-3.5
				C857.7,117.8,855.7,115.7,854.4,117.1z"/>
		</g>
	</g>
	<g>
		<g>
			<path class="st2" d="M890,64.2c2.4-7.5-0.1-15.3-6.1-20.2c-2.9-2.4-6.4-4.1-10.1-5c-4.6-1.1-9.2-0.6-13.7,0.8
				c-2.4,0.7-4.7,1.6-7,2.4c-2.4,0.8-4.9,1.5-7.3,2.3c-5,1.6-10,3.5-14.9,5.6c-6.1,2.6-11.8,5.9-17.2,9.7c-1.1,0.8-2.1,1.7-3.2,2.5
				c-1.6,1.2-3.3,2.3-5,3.5c-3.3,2.3-6.5,4.8-8.9,8.1c-4.7,6.6-5.7,16.6-1.7,23.7c4.2,7.6,14.4,11.3,22.7,10.4
				c9.3-1,17.2-6.5,25.2-10.8c8.1-4.3,16.8-7.3,24.5-12.3c3.8-2.5,7.1-5.5,10.8-8.1c3.2-2.3,6.6-4.4,9.1-7.5
				C888.5,67.6,889.4,66,890,64.2c0.6-1.8-2.2-2.5-2.8-0.8c-1.2,3.5-4,6-6.9,8.1c-3.1,2.3-6.2,4.5-9.2,6.9
				c-6.7,5.4-14.4,9-22.2,12.5c-4,1.9-8,3.8-11.9,6c-3.9,2.1-7.7,4.4-11.8,6c-3.8,1.5-7.9,2.5-12,2.1c-4-0.4-8.2-1.8-11.5-4.1
				c-6.7-4.7-7.7-13.8-5.1-21.1c2.7-7.6,10-11.1,15.9-15.7c0.7-0.5,1.3-1,1.9-1.6c-0.3,0.3,0.5-0.3,0.6-0.4c1-0.7,2-1.4,3.1-2
				c2.6-1.7,5.3-3.3,8-4.8c3.6-2,7.5-3.5,11.3-5c4.6-1.8,9.3-3.3,14-4.8c4.3-1.3,8.5-3.2,12.9-4c4.1-0.8,8.2-0.3,12,1.3
				c6.2,2.6,11.4,8.2,11.5,15.1c0,1.8-0.3,3.6-0.9,5.4C886.7,65.2,889.5,66,890,64.2z"/>
		</g>
	</g>
	<g>
		<g>
			<path class="st2" d="M887.2,82.8c2.2,6.7-0.2,13.4-5.7,17.7c-6.8,5.2-15.7,5.3-23.7,3.8c-9.4-1.9-18.6-5.2-27.4-9
				c-5.6-2.4-10.9-5.6-16-9c-0.3-0.2-0.7-0.4-1-0.7c-0.1-0.1-0.5-0.4-0.1-0.1c-0.3-0.3-0.7-0.6-1-0.8c-1.6-1.3-3.2-2.7-4.7-4
				c-3-2.7-5.9-5.5-8.1-8.9c-4.1-6.2-5.8-14.9-1.9-21.6c4-7.1,13.6-9.6,21.2-8.9c8.7,0.7,16.8,4.8,24.6,8.6
				c7.5,3.6,15.3,6.7,22.5,11c3.7,2.2,7,4.8,10.2,7.6c3.1,2.7,6.2,5.7,8.5,9.1C885.7,79.1,886.6,80.9,887.2,82.8
				c0.6,1.8,3.4,1,2.8-0.8c-2.9-8.4-10.2-14.8-17.1-20c-7.2-5.4-15.6-8.9-23.7-12.7c-8.5-4-16.9-8.6-26.2-10.4
				c-8.3-1.6-18.1-0.3-24.7,5.5c-6.2,5.6-7.2,15-4.5,22.6c2.9,8.4,9.8,14.1,16.4,19.7c1.9,1.6,4,3,6.1,4.3c2.7,1.7,5.4,3.3,8.2,4.8
				c4.2,2.1,8.7,3.9,13.2,5.6c4.9,1.8,9.8,3.4,14.8,4.7c8.9,2.3,18.8,3.4,27.3-1.1c6.4-3.4,11.3-9.8,11.2-17.3c0-1.9-0.4-3.8-1-5.6
				C889.5,80.2,886.7,81,887.2,82.8z"/>
		</g>
	</g>
</g>
<g>
	<path class="st2" d="M1036,124.8c-1.1-0.4-2.4,0.2-2.8,1.3c-1.3,3.5-2.9,6.9-4.7,10c-0.6,1-0.3,2.4,0.7,3c0.3,0.2,0.7,0.3,1.1,0.3
		c0.7,0,1.4-0.4,1.8-1c2-3.4,3.8-7,5.1-10.8C1037.7,126.4,1037.1,125.2,1036,124.8z M1041,104.2c0-1.2-1.1-2.1-2.2-2.1
		c-1.2,0-2.1,1-2.1,2.2c0,0.5,0,0.9,0,1.4c0,3.2-0.3,6.5-0.8,9.7c-0.2,1.2,0.6,2.3,1.8,2.5c0.1,0,0.2,0,0.3,0c1,0,2-0.8,2.1-1.8
		c0.6-3.4,0.8-6.9,0.8-10.4C1041,105.2,1041,104.7,1041,104.2z M1039.7,92.3c-0.8-3.9-2-7.8-3.6-11.4c-0.5-1.1-1.7-1.6-2.8-1.1
		c-1.1,0.5-1.6,1.7-1.1,2.8c1.4,3.4,2.5,6.9,3.3,10.6c0.2,1,1.1,1.7,2.1,1.7c0.2,0,0.3,0,0.4,0C1039.2,94.7,1039.9,93.5,1039.7,92.3
		z M999.3,73.2c-0.7-0.1-1.3-0.2-1.9-0.5c-1.8-0.7-3.1-2-3.4-3.4c0-0.2,0-0.4,0-0.5s0-0.4,0-0.6c0.2-1.2-0.6-2.3-1.8-2.4
		c-1.2-0.2-2.3,0.6-2.5,1.8c-0.1,0.4-0.1,0.8-0.1,1.2c0,0.4,0,0.9,0.1,1.3c0.5,2.9,2.8,5.5,6,6.8c0.9,0.4,1.9,0.6,2.9,0.7
		c0.1,0,0.2,0,0.3,0c1.1,0,2-0.8,2.1-1.9C1001.3,74.4,1000.5,73.3,999.3,73.2z M1030.3,70.5c-2.5-3.6-5.3-6.6-8.2-8.9
		c-0.9-0.7-2.3-0.6-3,0.4c-0.7,0.9-0.6,2.3,0.4,3c2.6,2,5,4.7,7.3,8c0.4,0.6,1.1,0.9,1.8,0.9c0.4,0,0.9-0.1,1.2-0.4
		C1030.8,72.8,1031,71.5,1030.3,70.5z M1015.4,59.5c-1.2-0.2-2.3,0.5-2.6,1.7c-0.4,1.9-1,3.7-1.9,5.2c-0.7,1.3-1.7,2.5-2.8,3.6
		c-0.9,0.8-1,2.2-0.2,3c0.4,0.5,1,0.7,1.6,0.7c0.5,0,1-0.2,1.5-0.5c1.5-1.4,2.8-3,3.7-4.7c1-1.9,1.8-4.1,2.3-6.4
		C1017.3,60.9,1016.5,59.8,1015.4,59.5z M1010.9,56.2c-1.4-0.3-2.8-0.4-4.2-0.4c-3,0-5.9,0.6-8.4,1.8c-1.1,0.5-1.6,1.8-1.1,2.9
		c0.4,0.8,1.1,1.3,2,1.3c0.3,0,0.6-0.1,0.9-0.2c2-0.9,4.3-1.4,6.6-1.4c1.1,0,2.2,0.1,3.3,0.3c1.2,0.2,2.3-0.5,2.5-1.7
		C1012.8,57.6,1012.1,56.4,1010.9,56.2z M1017.3,49.9c-0.1-0.6-0.1-1.1-0.2-1.7c-0.5-3.3-1.1-6.6-2-9.9c-0.3-1.1-1.5-1.8-2.7-1.5
		c-1.2,0.3-1.8,1.5-1.5,2.7c0.8,3.1,1.5,6.2,1.9,9.3c0.1,0.5,0.1,1.1,0.2,1.6c0.1,1.1,1.1,1.9,2.1,1.9c0.1,0,0.2,0,0.2,0
		C1016.6,52.2,1017.5,51.1,1017.3,49.9z M1011.2,27.2c-1.6-3.6-3.4-7.1-5.5-10.5c-0.6-1-2-1.3-3-0.7c-1,0.6-1.3,2-0.7,3
		c2,3.2,3.7,6.5,5.2,9.9c0.4,0.8,1.1,1.3,2,1.3c0.3,0,0.6-0.1,0.9-0.2C1011.1,29.5,1011.6,28.2,1011.2,27.2z M998.9,7.1
		c-2-2.5-4.2-4.8-6.4-7.1h-5.3c0,0.6,0.2,1.1,0.7,1.6c2.7,2.6,5.3,5.3,7.6,8.2c0.4,0.5,1,0.8,1.7,0.8c0.5,0,1-0.2,1.4-0.5
		C999.5,9.4,999.6,8,998.9,7.1z"/>
</g>
<g>
	<path class="st8" d="M870.1,504C870,504,870,504,870.1,504c-4-0.1-7.9-0.3-11.7-0.8c-1.2-0.1-2-1.2-1.9-2.4c0.1-1.2,1.2-2,2.4-1.9
		c3.7,0.4,7.5,0.7,11.3,0.8c1.2,0,2.1,1,2.1,2.2C872.2,503,871.2,504,870.1,504z M881.6,503.5c-1.1,0-2.1-0.9-2.2-2
		c-0.1-1.2,0.8-2.2,2-2.3c3.7-0.3,7.5-0.8,11.2-1.5c1.2-0.2,2.3,0.6,2.5,1.7c0.2,1.2-0.6,2.3-1.7,2.5c-3.9,0.7-7.8,1.2-11.6,1.5
		C881.7,503.5,881.6,503.5,881.6,503.5z M847.2,501.2c-0.2,0-0.3,0-0.5-0.1c-2.1-0.5-4.2-1.1-6.3-1.7c-1.7-0.5-3.3-1-5-1.6
		c-1.1-0.4-1.7-1.6-1.3-2.8c0.4-1.1,1.6-1.7,2.8-1.3c1.6,0.6,3.2,1.1,4.8,1.6c2,0.6,4,1.1,6,1.6c1.2,0.3,1.9,1.4,1.6,2.6
		C849.1,500.5,848.2,501.2,847.2,501.2z M904.2,499.5c-0.9,0-1.8-0.6-2.1-1.6c-0.3-1.1,0.4-2.3,1.5-2.7c3.6-1,7.2-2.2,10.8-3.5
		c1.1-0.4,2.4,0.1,2.8,1.3c0.4,1.1-0.1,2.4-1.3,2.8c-3.7,1.4-7.4,2.6-11.1,3.6C904.6,499.4,904.4,499.5,904.2,499.5z M825.5,493.6
		c-0.3,0-0.6-0.1-0.9-0.2c-3.5-1.7-7-3.5-10.3-5.6c-1-0.6-1.3-1.9-0.7-3c0.6-1,1.9-1.3,3-0.7c3.2,2,6.6,3.8,9.9,5.4
		c1.1,0.5,1.5,1.8,1,2.9C827.1,493.1,826.4,493.6,825.5,493.6z M925.8,491.4c-0.8,0-1.6-0.5-2-1.2c-0.5-1.1-0.1-2.4,1-2.9
		c3.4-1.6,6.8-3.4,10-5.3c1-0.6,2.4-0.3,3,0.8c0.6,1,0.3,2.4-0.8,3c-3.3,2-6.8,3.8-10.3,5.5C926.4,491.3,926.1,491.4,925.8,491.4z
		 M805.9,481.7c-0.4,0-0.9-0.1-1.3-0.4c-3.1-2.3-6.1-4.8-9.1-7.4c-0.9-0.8-1-2.2-0.2-3c0.8-0.9,2.2-1,3-0.2c2.8,2.5,5.8,4.9,8.8,7.1
		c1,0.7,1.2,2.1,0.4,3C807.2,481.4,806.5,481.7,805.9,481.7z M945.6,479.8c-0.7,0-1.3-0.3-1.8-0.9c-0.7-1-0.5-2.3,0.5-3
		c1.7-1.2,3.4-2.5,5.1-3.8c1.3-1,2.6-2.1,3.8-3.1c0.9-0.8,2.3-0.7,3,0.3c0.8,0.9,0.7,2.3-0.3,3c-1.3,1.1-2.6,2.2-4,3.2
		c-1.7,1.4-3.5,2.7-5.3,4C946.5,479.6,946,479.8,945.6,479.8z M788.7,466.4c-0.6,0-1.1-0.2-1.6-0.7c-2.7-2.8-5.2-5.8-7.7-8.8
		c-0.7-0.9-0.6-2.3,0.3-3c0.9-0.7,2.3-0.6,3,0.3c2.4,2.9,4.9,5.8,7.5,8.5c0.8,0.9,0.8,2.2-0.1,3.1
		C789.7,466.2,789.2,466.4,788.7,466.4z M963.2,464.9c-0.6,0-1.1-0.2-1.5-0.6c-0.8-0.8-0.8-2.2,0-3.1c2.7-2.6,5.3-5.4,7.8-8.3
		c0.8-0.9,2.1-1,3-0.2c0.9,0.8,1,2.1,0.2,3c-2.6,2.9-5.2,5.8-8,8.5C964.3,464.7,963.7,464.9,963.2,464.9z M774.3,448.4
		c-0.7,0-1.4-0.4-1.8-1c-2.5-4-4.2-7.6-5.1-11c-0.3-1.2,0.4-2.3,1.5-2.6c1.2-0.3,2.3,0.4,2.6,1.5c0.5,2.1,1.4,4.2,2.7,6.5
		c1.8-0.5,3.6-1.2,5.2-2.1c1.3-0.7,2.6-1.6,3.8-2.8c0.9-0.8,2.2-0.8,3.1,0.1c0.8,0.9,0.8,2.2-0.1,3.1c-1.5,1.4-3.1,2.6-4.7,3.5
		c-1.6,0.8-3.3,1.6-5.1,2.1c0.3,0.9-0.1,1.9-0.9,2.4C775.1,448.3,774.7,448.4,774.3,448.4z M978.3,447.5c-0.5,0-0.9-0.1-1.3-0.4
		c-1-0.7-1.1-2.1-0.4-3c2.2-3,4.4-6.1,6.5-9.3c0.6-1,2-1.3,3-0.6c1,0.6,1.3,2,0.6,3c-2.1,3.3-4.4,6.5-6.7,9.6
		C979.6,447.2,978.9,447.5,978.3,447.5z M763.2,447.3c0,0-0.1,0-0.1,0c-4-0.3-8-1.2-11.8-2.7c-1.1-0.4-1.7-1.7-1.2-2.8
		c0.4-1.1,1.7-1.7,2.8-1.2c3.4,1.3,6.9,2.1,10.5,2.4c1.2,0.1,2.1,1.1,2,2.3C765.3,446.4,764.4,447.3,763.2,447.3z M742.2,438.9
		c-0.5,0-1-0.2-1.4-0.5c-3.2-2.7-5.8-5.9-7.8-9.4c-0.6-1-0.2-2.4,0.9-2.9c1-0.6,2.4-0.2,2.9,0.9c1.7,3.1,4,5.8,6.8,8.2
		c0.9,0.8,1,2.1,0.3,3C743.4,438.7,742.8,438.9,742.2,438.9z M790.5,430.9c-0.2,0-0.4,0-0.6-0.1c-1.2-0.3-1.8-1.5-1.5-2.6
		c0.3-1.1,0.4-2.2,0.4-3.2c0-2.2-0.7-4-2.1-5.4c-0.9-0.8-0.9-2.2-0.1-3.1c0.8-0.9,2.2-0.9,3.1-0.1c2.3,2.2,3.4,5.1,3.4,8.5
		c0,1.4-0.2,2.9-0.6,4.3C792.4,430.3,791.5,430.9,790.5,430.9z M990.8,428.2c-0.4,0-0.7-0.1-1-0.3c-1-0.6-1.4-1.9-0.8-2.9
		c1.8-3.3,3.6-6.7,5.2-10.1c0.5-1.1,1.8-1.5,2.9-1c1.1,0.5,1.5,1.8,1,2.9c-1.7,3.5-3.5,7-5.4,10.3
		C992.3,427.8,991.5,428.2,990.8,428.2z M769.7,426.7c-0.3,0-0.6-0.1-0.8-0.2c-1.1-0.5-1.6-1.7-1.2-2.8c1.7-4,5-7.5,9-9.2
		c1.1-0.5,2.4,0,2.8,1.1c0.5,1.1,0,2.4-1.1,2.8c-2.9,1.3-5.5,3.9-6.7,6.9C771.4,426.2,770.6,426.7,769.7,426.7z M1000.7,407.5
		c-0.3,0-0.5-0.1-0.8-0.2c-1.1-0.4-1.6-1.7-1.2-2.8c1.4-3.5,2.8-7.1,4-10.7c0.4-1.1,1.6-1.7,2.7-1.3c1.1,0.4,1.7,1.6,1.3,2.7
		c-1.3,3.7-2.6,7.3-4.1,10.9C1002.4,406.9,1001.6,407.5,1000.7,407.5z M1008.2,385.7c-0.2,0-0.4,0-0.6-0.1c-1.1-0.3-1.8-1.5-1.5-2.7
		c0.7-2.5,1.4-5.1,2-7.6c0.3-1.1,0.5-2.3,0.8-3.4c0.3-1.2,1.4-1.9,2.6-1.6c1.2,0.3,1.9,1.4,1.6,2.6c-0.3,1.2-0.5,2.3-0.8,3.5
		c-0.6,2.6-1.3,5.2-2,7.8C1010,385,1009.1,385.7,1008.2,385.7z M1013.2,363.2c-0.1,0-0.3,0-0.4,0c-1.2-0.2-2-1.3-1.8-2.5
		c0.6-3.6,1.2-7.3,1.8-11.3c0.2-1.2,1.3-2,2.4-1.8c1.2,0.2,2,1.3,1.8,2.4c-0.6,4.1-1.2,7.8-1.8,11.4
		C1015.1,362.5,1014.2,363.2,1013.2,363.2z M1016.5,340.4c-0.1,0-0.2,0-0.3,0c-1.2-0.1-2-1.2-1.9-2.4c0.4-3.3,0.8-6.8,1.3-11.4
		c0.1-1.2,1.2-2,2.4-1.9c1.2,0.1,2,1.2,1.9,2.4c-0.5,4.6-0.9,8.1-1.3,11.5C1018.5,339.6,1017.6,340.4,1016.5,340.4z M1019,317.5
		c-0.1,0-0.2,0-0.2,0c-1.2-0.1-2-1.2-1.9-2.4c0.4-3.8,0.8-7.6,1.3-11.5c0.1-1.2,1.2-2,2.4-1.9c1.2,0.1,2,1.2,1.9,2.4
		c-0.4,3.8-0.9,7.6-1.3,11.4C1021.1,316.7,1020.1,317.5,1019,317.5z M1021.7,294.6c-0.1,0-0.2,0-0.3,0c-1.2-0.2-2-1.2-1.9-2.4
		c0.6-4.1,1.1-7.8,1.7-11.5c0.2-1.2,1.3-2,2.5-1.8c1.2,0.2,2,1.3,1.8,2.5c-0.6,3.6-1.1,7.3-1.7,11.3
		C1023.7,293.8,1022.8,294.6,1021.7,294.6z"/>
</g>
<circle class="st9" cx="1051.7" cy="392.8" r="13.8"/>
<ellipse transform="matrix(0.9732 -0.2298 0.2298 0.9732 -63.4148 22.6282)" class="st9" cx="65.5" cy="283.6" rx="13.8" ry="13.8"/>
</svg>
